<svg width="562" height="240" viewBox="0 0 562 240" fill="none" xmlns="http://www.w3.org/2000/svg">
<path d="M228.2 39.64C228.2 52.95 221.59 64.72 211.49 71.85C211.35 71.96 211.2 72.06 211.05 72.16C210.81 72.34 210.57 72.5 210.32 72.65C210.21 72.73 210.09 72.81 209.97 72.88C209.96 72.88 209.96 72.89 209.95 72.89C209.34 73.28 208.73 73.64 208.11 73.99C208.11 73.99 208.1 73.99 208.1 74C202.4 77.22 195.81 79.05 188.8 79.05V60.86C192.3 60.86 195.61 60.01 198.52 58.51C199.05 58.24 199.56 57.95 200.06 57.63C200.06 57.63 200.07 57.63 200.08 57.62C200.37 57.44 200.64 57.26 200.91 57.07C206.41 53.24 210.02 46.87 210.02 39.65C210.02 38.26 209.89 36.9 209.64 35.59C207.74 25.81 199.13 18.43 188.81 18.43C177.09 18.43 167.6 27.93 167.6 39.65V51.87L149.44 40.29V38.13C149.94 24.81 157.06 13.19 167.6 6.44C173.72 2.52 181 0.25 188.81 0.25C210.57 0.25 228.21 17.89 228.21 39.65L228.2 39.64Z" fill="#1E61F0"/>
<path d="M138.09 38.11V40.27L119.93 51.85V39.63C119.93 27.91 110.43 18.41 98.72 18.41C88.4 18.41 79.7901 25.79 77.8901 35.57C77.6301 36.89 77.5001 38.25 77.5001 39.63C77.5001 46.84 81.1 53.22 86.61 57.05C86.89 57.24 87.1601 57.43 87.4501 57.6C87.4501 57.6 87.46 57.61 87.47 57.61C87.97 57.92 88.4701 58.22 89.0001 58.49C91.9101 59.99 95.22 60.84 98.72 60.84V79.03C91.71 79.03 85.12 77.2 79.42 73.98C79.42 73.98 79.4101 73.98 79.4001 73.97C78.7801 73.63 78.1701 73.26 77.5701 72.87C77.5701 72.87 77.56 72.87 77.55 72.86C77.43 72.78 77.3101 72.71 77.1901 72.63C76.9501 72.48 76.7001 72.32 76.4601 72.14C76.3201 72.04 76.1701 71.94 76.0201 71.83C65.9101 64.7 59.3101 52.93 59.3101 39.62C59.3101 17.86 76.9501 0.219971 98.7101 0.219971C106.52 0.219971 113.8 2.49997 119.92 6.40997C130.46 13.15 137.58 24.78 138.08 38.1L138.09 38.11Z" fill="#1E61F0"/>
<path d="M138.09 199.72V201.88C137.59 215.2 130.47 226.82 119.93 233.57C113.81 237.49 106.53 239.76 98.7198 239.76C76.9598 239.76 59.3198 222.12 59.3198 200.36C59.3198 187.05 65.9198 175.28 76.0298 168.15C76.1698 168.04 76.3198 167.94 76.4698 167.84C76.7098 167.66 76.9498 167.5 77.1998 167.35C77.3198 167.27 77.4398 167.19 77.5598 167.12C77.5598 167.12 77.5698 167.11 77.5798 167.11C78.1798 166.72 78.7898 166.36 79.4098 166.01C79.4098 166.01 79.4198 166.01 79.4298 166C85.1298 162.78 91.7198 160.95 98.7298 160.95V179.14C95.2298 179.14 91.9198 179.99 89.0098 181.49C88.4798 181.76 87.9798 182.05 87.4798 182.37C87.4798 182.37 87.4698 182.37 87.4598 182.38C87.1698 182.56 86.8998 182.74 86.6198 182.93C81.1198 186.76 77.5098 193.13 77.5098 200.35C77.5098 201.74 77.6398 203.1 77.8998 204.41C79.7998 214.19 88.4098 221.57 98.7298 221.57C110.45 221.57 119.94 212.07 119.94 200.35V188.13L138.1 199.71L138.09 199.72Z" fill="#1E61F0"/>
<path d="M226.02 116.96H158.5C156.19 116.96 154.09 116.09 152.47 114.67C150.59 113 149.41 110.59 149.41 107.88V51.05L151.48 52.3801L163.16 59.83C165.91 61.58 167.57 64.6201 167.57 67.8801V78.5701C167.57 89.7501 176.63 98.8201 187.82 98.8201H204.09C206.6 98.8201 208.86 99.84 210.51 101.48L210.85 101.82L222.71 113.67L226.01 116.98L226.02 116.96Z" fill="#0F2A6F"/>
<path d="M138.09 51.04V107.87C138.09 110.58 136.91 112.99 135.03 114.66C133.43 116.08 131.32 116.95 129 116.95H61.5701V116.87L64.8 113.64L76.7101 101.73L76.9901 101.45C78.6301 99.81 80.9 98.79 83.41 98.79H99.6901C110.87 98.79 119.94 89.73 119.94 78.54V67.85C119.94 64.59 121.6 61.56 124.35 59.8L136.02 52.35L138.09 51.02V51.04Z" fill="#0F2A6F"/>
<path d="M138.09 132.13V188.96L136.02 187.63L124.62 180.36C121.71 178.5 119.94 175.28 119.94 171.83V161.46C119.94 150.28 110.88 141.21 99.69 141.21H83.41C80.91 141.21 78.64 140.19 76.99 138.55L64.8 126.36L61.49 123.05H129.01C131.32 123.05 133.43 123.92 135.04 125.34C136.92 127.01 138.1 129.42 138.1 132.13H138.09Z" fill="#0F2A6F"/>
<path d="M226.02 123.04L222.72 126.35L212.86 136.21L210.52 138.54C208.88 140.18 206.62 141.2 204.1 141.2H187.83C176.65 141.2 167.58 150.26 167.58 161.45V172.14C167.58 175.4 165.92 178.43 163.17 180.19L151.49 187.64L149.42 188.97V132.14C149.42 129.43 150.6 127.02 152.48 125.35C154.09 123.93 156.19 123.06 158.51 123.06H226.03L226.02 123.04Z" fill="#0F2A6F"/>
<path d="M228.2 200.36C228.2 222.12 210.56 239.76 188.8 239.76C180.99 239.76 173.71 237.48 167.59 233.57C157.05 226.83 149.93 215.2 149.43 201.88V199.72L167.59 188.14V200.36C167.59 212.08 177.08 221.58 188.8 221.58C199.12 221.58 207.73 214.2 209.63 204.42C209.89 203.1 210.01 201.74 210.01 200.36C210.01 193.15 206.41 186.77 200.9 182.94C200.63 182.75 200.35 182.56 200.07 182.39C200.07 182.39 200.06 182.38 200.05 182.38C199.55 182.07 199.04 181.77 198.51 181.5C195.6 180 192.29 179.15 188.79 179.15V160.96C195.8 160.96 202.39 162.79 208.09 166.01C208.09 166.01 208.09 166.01 208.1 166.02C208.72 166.36 209.33 166.73 209.94 167.12C209.94 167.12 209.94 167.12 209.96 167.13C210.08 167.21 210.2 167.28 210.31 167.36C210.56 167.51 210.81 167.67 211.04 167.85C211.18 167.95 211.33 168.05 211.48 168.16C221.58 175.29 228.19 187.06 228.19 200.37L228.2 200.36Z" fill="#1E61F0"/>
<path d="M40.3699 95.7399C48.2299 95.7399 55.11 100.03 58.77 106.39L70.3499 94.8099C70.8599 94.2999 71.3899 93.82 71.9399 93.4C64.7699 83.78 53.2899 77.5499 40.3699 77.5499C32.5499 77.5499 25.27 79.8299 19.15 83.7499C8.61996 90.4999 1.49993 102.12 0.989929 115.45C0.979929 115.95 0.959961 116.46 0.959961 116.97C0.959961 117.18 0.95991 117.39 0.96991 117.6C0.97991 117.91 0.979929 118.19 0.989929 118.49C1.13993 122.4 1.85995 126.17 3.06995 129.7C5.97995 138.22 11.72 145.41 19.15 150.18C25.21 154.06 32.4099 156.32 40.1299 156.38H40.3599C47.3699 156.38 53.9599 154.54 59.6599 151.33C60.5499 150.83 61.4099 150.3 62.2499 149.74C62.3799 149.66 62.4899 149.58 62.6099 149.49C64.9699 147.88 67.1299 146.02 69.0699 143.95L56.2 131.09C54.48 133.02 52.4 134.63 50.08 135.83C47.16 137.34 43.8599 138.2 40.3599 138.2C28.6399 138.2 19.14 128.69 19.14 116.98C19.14 105.27 28.6399 95.7599 40.3599 95.7599L40.3699 95.7399Z" fill="#1E61F0"/>
<path d="M247.24 77.54C239.43 77.54 232.15 79.82 226.03 83.74C222 86.32 218.48 89.61 215.63 93.44C216.17 93.86 216.69 94.33 217.18 94.82L228.81 106.45C232.46 100.06 239.36 95.75 247.24 95.75C257.57 95.75 266.18 103.13 268.07 112.92C268.32 114.22 268.46 115.58 268.46 116.97C268.46 125.18 263.79 132.3 256.97 135.82C254.05 137.33 250.75 138.19 247.24 138.19C240.92 138.19 235.25 135.41 231.36 131.03L218.49 143.9C220.73 146.3 223.26 148.41 226.03 150.18C232.09 154.06 239.29 156.32 247.01 156.38H247.23C254.25 156.38 260.84 154.54 266.54 151.33C267.43 150.83 268.29 150.3 269.13 149.74C269.25 149.66 269.37 149.58 269.49 149.49C279.84 142.4 286.64 130.48 286.64 116.98C286.64 95.22 269 77.57 247.23 77.57L247.24 77.54Z" fill="#1E61F0"/>
<path d="M141.58 113.72L143.8 107.72L146.02 113.72C146.72 115.6 148.2 117.09 150.08 117.78L156.08 120L150.08 122.22C148.2 122.92 146.71 124.4 146.02 126.28L143.8 132.28L141.58 126.28C140.88 124.4 139.4 122.91 137.52 122.22L131.52 120L137.52 117.78C139.4 117.08 140.89 115.6 141.58 113.72Z" fill="#8FD3E9"/>
<path d="M316.94 25.38H333.13V87.51H371.03V102.49H316.94V25.38Z" fill="#0F2A6F"/>
<path d="M375.21 75.17C375.21 59.2 386.12 46.97 400.66 46.97C408.92 46.97 414.54 49.94 418.62 54.79V47.96H434.04V102.49H418.62V95.6599C414.54 100.4 408.93 103.48 400.66 103.48C386.12 103.48 375.21 91.14 375.21 75.17ZM418.62 75.17C418.62 66.69 412.45 60.41 404.52 60.41C396.59 60.41 390.53 66.69 390.53 75.17C390.53 83.65 396.59 89.93 404.52 89.93C412.45 89.93 418.62 83.65 418.62 75.17Z" fill="#0F2A6F"/>
<path d="M440.42 47.96H456.72L470.82 87.07L484.92 47.96H501.11L479.41 102.49H462.22L440.41 47.96H440.42Z" fill="#0F2A6F"/>
<path d="M502.22 75.17C502.22 59.2 513.13 46.97 527.67 46.97C535.93 46.97 541.55 49.94 545.63 54.79V47.96H561.05V102.49H545.63V95.6599C541.55 100.4 535.94 103.48 527.67 103.48C513.13 103.48 502.22 91.14 502.22 75.17ZM545.62 75.17C545.62 66.69 539.45 60.41 531.52 60.41C523.59 60.41 517.53 66.69 517.53 75.17C517.53 83.65 523.59 89.93 531.52 89.93C539.45 89.93 545.62 83.65 545.62 75.17Z" fill="#0F2A6F"/>
<path d="M316.94 135.53H349.11C362.88 135.53 375.22 144.67 375.22 160.87C375.22 177.07 362.88 186.32 349.11 186.32H332.92V212.65H316.95V135.54L316.94 135.53ZM348.01 172.43C354.95 172.43 359.58 167.69 359.58 160.86C359.58 154.03 354.95 149.4 348.01 149.4H332.92V172.42H348.01V172.43Z" fill="#0F2A6F"/>
<path d="M383.25 193.69V130.02H398.67V190.83C398.67 196.45 402.42 198.65 406.38 198.65C407.37 198.65 408.47 198.54 409.46 198.21L411 211.65C407.91 212.42 405.05 212.86 402.3 212.86C390.73 212.86 383.24 205.81 383.24 193.69H383.25Z" fill="#0F2A6F"/>
<path d="M416.3 186.42V158.11H431.72V184.77C431.72 194.91 436.57 200.08 443.62 200.08C451.22 200.08 456.07 194.57 456.07 184.44V158.11H471.49V212.64H456.29V206.03H456.07C452.54 210.33 446.82 213.3 439.88 213.3C425.89 213.3 416.31 203.72 416.31 186.42H416.3Z" fill="#0F2A6F"/>
<path d="M478.64 199.31L491.97 195.12C494.17 200.08 498.8 202.28 503.87 202.28C509.6 202.28 513.34 199.97 513.34 195.78C513.34 188.95 500.01 192.48 490.1 188.4C485.14 186.2 480.74 182.12 480.74 174.52C480.74 164.27 490.65 156.56 503.1 156.56C515.55 156.56 523.15 162.73 525.57 171.54L512.46 175.18C511.47 170.99 508.16 168.13 503.21 168.13C498.26 168.13 494.84 170.88 494.84 174.19C494.84 181.46 509.49 178.49 518.53 182.34C524.04 184.65 528.33 188.4 528.33 196C528.33 207.35 517.86 214.62 503.65 214.62C492.19 214.62 482.06 208.89 478.64 199.31Z" fill="#0F2A6F"/>
<path d="M540.06 141.35L540.76 139.07L541.46 141.35C541.72 142.19 542.38 142.85 543.22 143.11L545.5 143.81L543.22 144.51C542.38 144.77 541.72 145.43 541.46 146.27L540.76 148.55L540.06 146.27C539.8 145.43 539.14 144.77 538.3 144.51L536.02 143.81L538.3 143.11C539.14 142.85 539.8 142.19 540.06 141.35Z" fill="#8FD3E9"/>
<path d="M561.05 142.04H545.26C544.72 142.04 544.23 141.84 543.85 141.5C543.41 141.11 543.14 140.54 543.14 139.91V126.62L543.62 126.93L546.35 128.67C546.99 129.08 547.38 129.79 547.38 130.55V137.78H555.92C556.51 137.78 557.04 138.02 557.42 138.4L557.5 138.48L560.27 141.25L561.04 142.02L561.05 142.04Z" fill="#1E61F0"/>
<path d="M538.38 126.62V139.91C538.38 140.54 538.1 141.11 537.67 141.5C537.3 141.83 536.8 142.04 536.26 142.04H520.49V142.02L521.24 141.27L524.03 138.48L524.09 138.42C524.47 138.04 525.01 137.8 525.59 137.8H534.13V130.56C534.13 129.8 534.52 129.09 535.16 128.68L537.89 126.94L538.37 126.63L538.38 126.62Z" fill="#1E61F0"/>
<path d="M538.38 147.69V160.98L537.9 160.67L535.17 158.93C534.53 158.52 534.14 157.81 534.14 157.05V149.81H525.6C525.01 149.81 524.48 149.57 524.1 149.19L521.25 146.34L520.48 145.57H536.27C536.81 145.57 537.3 145.77 537.68 146.11C538.12 146.5 538.39 147.07 538.39 147.7L538.38 147.69Z" fill="#1E61F0"/>
<path d="M561.05 145.56L560.28 146.33L557.97 148.64L557.42 149.19C557.04 149.57 556.51 149.81 555.92 149.81H547.38V157.04C547.38 157.8 546.99 158.51 546.35 158.92L543.62 160.66L543.14 160.97V147.68C543.14 147.05 543.42 146.48 543.85 146.09C544.23 145.76 544.72 145.55 545.26 145.55H561.05V145.56Z" fill="#1E61F0"/>
</svg>
